<svg width="101" height="101" viewBox="0 0 101 101" fill="none" xmlns="http://www.w3.org/2000/svg">
<path d="M30.2888 80.8C24.7358 80.8 20.243 85.345 20.243 90.9C20.243 96.455 24.7358 101 30.2888 101C35.8417 101 40.385 96.455 40.385 90.9C40.385 85.345 35.8417 80.8 30.2888 80.8ZM0 5.05C0 7.8275 2.27166 10.1 5.04813 10.1H10.0963L28.2695 48.4295L21.4545 60.7515C17.7694 67.5185 22.6156 75.75 30.2888 75.75H85.8181C88.5946 75.75 90.8663 73.4775 90.8663 70.7C90.8663 67.9225 88.5946 65.65 85.8181 65.65H30.2888L35.8417 55.55H73.4502C77.2363 55.55 80.5681 53.4795 82.2844 50.3485L100.357 17.574C102.225 14.241 99.8014 10.1 95.9649 10.1H21.2526L17.8704 2.8785C17.0627 1.111 15.2453 0 13.3271 0H5.04813C2.27166 0 0 2.2725 0 5.05ZM80.77 80.8C75.2171 80.8 70.7242 85.345 70.7242 90.9C70.7242 96.455 75.2171 101 80.77 101C86.3229 101 90.8663 96.455 90.8663 90.9C90.8663 85.345 86.3229 80.8 80.77 80.8Z" fill="white"/>
</svg>
